# xmcd
# 
# Track frame offsets:
#     150
#     17550
#     36617
#     51762
#     71812
#     91362
#     114487
#     132550
#     151787
#     167137
#     184300
#     202975
#     216500
#     236837
#     249050
#     263525
#     282870
#     299837
#     319837
#     335112
# 
# Disc length: 4709
# 
# Revision: 2
# Processed by: cddbd v1.5.2PL0 Copyright (c) Steve Scherf et al.
# Submitted via: BonkEnc v1.0.6
# 
DISCID=39126314
DTITLE=Various Artist - Feelings Die Vierte CD 2
DYEAR=2000
DGENRE=Romantik
TTITLE0=Loona - Hijo De La Luna
TTITLE1=Curtis Stigers - I Wonder Why
TTITLE2=Judith - We Gonna Stay Together
TTITLE3=Toto - Africa
TTITLE4=Jessica - Tell Me Why
TTITLE5=Simon and Garfunkel - The Boxer
TTITLE6=Rollergirl - Eternal Flame
TTITLE7=Steve Darion - Time
TTITLE8=Four Colourz - Anything
TTITLE9=Nana - I Wanna Fly (Like An Eagle)
TTITLE10=Band Ohne Namen - Take My Heart
TTITLE11=Enyosion - Born Again
TTITLE12=Torchiani - Out Father's Land
TTITLE13=Harry Nilsson - Everybody's Talkin'
TTITLE14=Marvin McKay - Ohne Dich (Schlaf' Ich Heut Nacht Nicht Ein)
TTITLE15=Stevie B. - Because I Love You
TTITLE16=Boys Alive - Right Here Waiting
TTITLE17=Caught In The Act - Babe
TTITLE18=Don Philip - Sugar
TTITLE19=Whigfield - Close To You
EXTD=
EXTT0=
EXTT1=
EXTT2=
EXTT3=
EXTT4=
EXTT5=
EXTT6=
EXTT7=
EXTT8=
EXTT9=
EXTT10=
EXTT11=
EXTT12=
EXTT13=
EXTT14=
EXTT15=
EXTT16=
EXTT17=
EXTT18=
EXTT19=
PLAYORDER=
